<svg width="443" height="146" viewBox="0 0 443 146" fill="none" xmlns="http://www.w3.org/2000/svg">
<g filter="url(#filter0_d_288_197)">
<rect x="40" y="36" width="363" height="66" rx="33" fill="#004B90"/>
</g>
<path d="M76.2093 76V62H88.2693V76H86.3093V63.22L86.7893 63.74H77.6893L78.1893 63.22V76H76.2093ZM92.6351 76V62H98.0951C99.3217 62 100.368 62.1933 101.235 62.58C102.102 62.9667 102.768 63.5267 103.235 64.26C103.702 64.9933 103.935 65.8667 103.935 66.88C103.935 67.8933 103.702 68.7667 103.235 69.5C102.768 70.22 102.102 70.78 101.235 71.18C100.368 71.5667 99.3217 71.76 98.0951 71.76H93.7351L94.6351 70.82V76H92.6351ZM94.6351 71.02L93.7351 70.02H98.0351C99.3151 70.02 100.282 69.7467 100.935 69.2C101.602 68.6533 101.935 67.88 101.935 66.88C101.935 65.88 101.602 65.1067 100.935 64.56C100.282 64.0133 99.3151 63.74 98.0351 63.74H93.7351L94.6351 62.74V71.02ZM113.212 76.16C112.146 76.16 111.152 75.98 110.232 75.62C109.326 75.26 108.539 74.76 107.872 74.12C107.206 73.4667 106.686 72.7067 106.312 71.84C105.939 70.9733 105.752 70.0267 105.752 69C105.752 67.9733 105.939 67.0267 106.312 66.16C106.686 65.2933 107.206 64.54 107.872 63.9C108.539 63.2467 109.326 62.74 110.232 62.38C111.139 62.02 112.132 61.84 113.212 61.84C114.279 61.84 115.259 62.02 116.152 62.38C117.059 62.7267 117.846 63.2267 118.512 63.88C119.192 64.52 119.712 65.2733 120.072 66.14C120.446 67.0067 120.632 67.96 120.632 69C120.632 70.04 120.446 70.9933 120.072 71.86C119.712 72.7267 119.192 73.4867 118.512 74.14C117.846 74.78 117.059 75.28 116.152 75.64C115.259 75.9867 114.279 76.16 113.212 76.16ZM113.212 74.38C113.986 74.38 114.699 74.2467 115.352 73.98C116.019 73.7133 116.592 73.34 117.072 72.86C117.566 72.3667 117.946 71.7933 118.212 71.14C118.492 70.4867 118.632 69.7733 118.632 69C118.632 68.2267 118.492 67.5133 118.212 66.86C117.946 66.2067 117.566 65.64 117.072 65.16C116.592 64.6667 116.019 64.2867 115.352 64.02C114.699 63.7533 113.986 63.62 113.212 63.62C112.426 63.62 111.699 63.7533 111.032 64.02C110.379 64.2867 109.806 64.6667 109.312 65.16C108.819 65.64 108.432 66.2067 108.152 66.86C107.886 67.5133 107.752 68.2267 107.752 69C107.752 69.7733 107.886 70.4867 108.152 71.14C108.432 71.7933 108.819 72.3667 109.312 72.86C109.806 73.34 110.379 73.7133 111.032 73.98C111.699 74.2467 112.426 74.38 113.212 74.38ZM133.286 76L128.206 69.1L129.826 68.1L135.566 76H133.286ZM123.866 76V62H125.826V76H123.866ZM125.226 69.84V68.08H129.766V69.84H125.226ZM130.006 69.22L128.166 68.94L133.186 62H135.326L130.006 69.22ZM143.876 76.16C142.81 76.16 141.816 75.98 140.896 75.62C139.99 75.26 139.203 74.76 138.536 74.12C137.87 73.4667 137.35 72.7067 136.976 71.84C136.603 70.9733 136.416 70.0267 136.416 69C136.416 67.9733 136.603 67.0267 136.976 66.16C137.35 65.2933 137.87 64.54 138.536 63.9C139.203 63.2467 139.99 62.74 140.896 62.38C141.803 62.02 142.796 61.84 143.876 61.84C144.943 61.84 145.923 62.02 146.816 62.38C147.723 62.7267 148.51 63.2267 149.176 63.88C149.856 64.52 150.376 65.2733 150.736 66.14C151.11 67.0067 151.296 67.96 151.296 69C151.296 70.04 151.11 70.9933 150.736 71.86C150.376 72.7267 149.856 73.4867 149.176 74.14C148.51 74.78 147.723 75.28 146.816 75.64C145.923 75.9867 144.943 76.16 143.876 76.16ZM143.876 74.38C144.65 74.38 145.363 74.2467 146.016 73.98C146.683 73.7133 147.256 73.34 147.736 72.86C148.23 72.3667 148.61 71.7933 148.876 71.14C149.156 70.4867 149.296 69.7733 149.296 69C149.296 68.2267 149.156 67.5133 148.876 66.86C148.61 66.2067 148.23 65.64 147.736 65.16C147.256 64.6667 146.683 64.2867 146.016 64.02C145.363 63.7533 144.65 63.62 143.876 63.62C143.09 63.62 142.363 63.7533 141.696 64.02C141.043 64.2867 140.47 64.6667 139.976 65.16C139.483 65.64 139.096 66.2067 138.816 66.86C138.55 67.5133 138.416 68.2267 138.416 69C138.416 69.7733 138.55 70.4867 138.816 71.14C139.096 71.7933 139.483 72.3667 139.976 72.86C140.47 73.34 141.043 73.7133 141.696 73.98C142.363 74.2467 143.09 74.38 143.876 74.38ZM164.57 62H166.57V76H164.57V62ZM156.53 76H154.53V62H156.53V76ZM164.75 69.76H156.33V68.02H164.75V69.76ZM177.196 76.16C176.129 76.16 175.143 75.9867 174.236 75.64C173.343 75.28 172.563 74.78 171.896 74.14C171.243 73.4867 170.729 72.7267 170.356 71.86C169.983 70.9933 169.796 70.04 169.796 69C169.796 67.96 169.983 67.0067 170.356 66.14C170.729 65.2733 171.249 64.52 171.916 63.88C172.583 63.2267 173.363 62.7267 174.256 62.38C175.163 62.02 176.149 61.84 177.216 61.84C178.296 61.84 179.289 62.0267 180.196 62.4C181.116 62.76 181.896 63.3 182.536 64.02L181.236 65.28C180.703 64.72 180.103 64.3067 179.436 64.04C178.769 63.76 178.056 63.62 177.296 63.62C176.509 63.62 175.776 63.7533 175.096 64.02C174.429 64.2867 173.849 64.66 173.356 65.14C172.863 65.62 172.476 66.1933 172.196 66.86C171.929 67.5133 171.796 68.2267 171.796 69C171.796 69.7733 171.929 70.4933 172.196 71.16C172.476 71.8133 172.863 72.38 173.356 72.86C173.849 73.34 174.429 73.7133 175.096 73.98C175.776 74.2467 176.509 74.38 177.296 74.38C178.056 74.38 178.769 74.2467 179.436 73.98C180.103 73.7 180.703 73.2733 181.236 72.7L182.536 73.96C181.896 74.68 181.116 75.2267 180.196 75.6C179.289 75.9733 178.289 76.16 177.196 76.16ZM184.919 74.24C185.613 74.4933 186.253 74.56 186.839 74.44C187.426 74.3067 187.953 73.86 188.419 73.1L189.099 72.02L189.299 71.8L194.439 62H196.419L190.199 73.52C189.733 74.4 189.186 75.0667 188.559 75.52C187.946 75.96 187.279 76.2 186.559 76.24C185.853 76.2933 185.133 76.16 184.399 75.84L184.919 74.24ZM189.239 73.58L183.099 62H185.239L190.339 71.98L189.239 73.58ZM197.678 76.16C197.478 76.16 197.278 76.1467 197.078 76.12C196.878 76.0933 196.658 76.0533 196.418 76L196.558 74.22C196.772 74.2733 196.985 74.3 197.198 74.3C197.785 74.3 198.252 74.0667 198.598 73.6C198.945 73.1333 199.198 72.4267 199.358 71.48C199.532 70.5333 199.645 69.34 199.698 67.9L199.918 62H209.778V76H207.818V63.22L208.298 63.74H201.198L201.638 63.2L201.478 67.84C201.438 69.2267 201.345 70.44 201.198 71.48C201.052 72.52 200.832 73.3867 200.538 74.08C200.245 74.7733 199.865 75.2933 199.398 75.64C198.945 75.9867 198.372 76.16 197.678 76.16ZM220.279 66.88C221.932 66.88 223.206 67.2533 224.099 68C224.992 68.7333 225.439 69.8333 225.439 71.3C225.439 72.8467 224.952 74.02 223.979 74.82C223.019 75.6067 221.666 76 219.919 76H214.139V62H216.119V66.88H220.279ZM219.839 74.42C220.999 74.42 221.886 74.16 222.499 73.64C223.126 73.12 223.439 72.3533 223.439 71.34C223.439 70.3533 223.132 69.6267 222.519 69.16C221.906 68.6933 221.012 68.46 219.839 68.46H216.119V74.42H219.839ZM229.909 76V63.22L230.409 63.74H225.129V62H236.669V63.74H231.389L231.869 63.22V76H229.909ZM239.1 76V62H241.08V72.8L249.36 62H251.2V76H249.24V65.22L240.94 76H239.1ZM255.565 76V62H261.025C262.251 62 263.298 62.1933 264.165 62.58C265.031 62.9667 265.698 63.5267 266.165 64.26C266.631 64.9933 266.865 65.8667 266.865 66.88C266.865 67.8933 266.631 68.7667 266.165 69.5C265.698 70.22 265.031 70.78 264.165 71.18C263.298 71.5667 262.251 71.76 261.025 71.76H256.665L257.565 70.82V76H255.565ZM257.565 71.02L256.665 70.02H260.965C262.245 70.02 263.211 69.7467 263.865 69.2C264.531 68.6533 264.865 67.88 264.865 66.88C264.865 65.88 264.531 65.1067 263.865 64.56C263.211 64.0133 262.245 63.74 260.965 63.74H256.665L257.565 62.74V71.02ZM276.142 76.16C275.075 76.16 274.082 75.98 273.162 75.62C272.255 75.26 271.469 74.76 270.802 74.12C270.135 73.4667 269.615 72.7067 269.242 71.84C268.869 70.9733 268.682 70.0267 268.682 69C268.682 67.9733 268.869 67.0267 269.242 66.16C269.615 65.2933 270.135 64.54 270.802 63.9C271.469 63.2467 272.255 62.74 273.162 62.38C274.069 62.02 275.062 61.84 276.142 61.84C277.209 61.84 278.189 62.02 279.082 62.38C279.989 62.7267 280.775 63.2267 281.442 63.88C282.122 64.52 282.642 65.2733 283.002 66.14C283.375 67.0067 283.562 67.96 283.562 69C283.562 70.04 283.375 70.9933 283.002 71.86C282.642 72.7267 282.122 73.4867 281.442 74.14C280.775 74.78 279.989 75.28 279.082 75.64C278.189 75.9867 277.209 76.16 276.142 76.16ZM276.142 74.38C276.915 74.38 277.629 74.2467 278.282 73.98C278.949 73.7133 279.522 73.34 280.002 72.86C280.495 72.3667 280.875 71.7933 281.142 71.14C281.422 70.4867 281.562 69.7733 281.562 69C281.562 68.2267 281.422 67.5133 281.142 66.86C280.875 66.2067 280.495 65.64 280.002 65.16C279.522 64.6667 278.949 64.2867 278.282 64.02C277.629 63.7533 276.915 63.62 276.142 63.62C275.355 63.62 274.629 63.7533 273.962 64.02C273.309 64.2867 272.735 64.6667 272.242 65.16C271.749 65.64 271.362 66.2067 271.082 66.86C270.815 67.5133 270.682 68.2267 270.682 69C270.682 69.7733 270.815 70.4867 271.082 71.14C271.362 71.7933 271.749 72.3667 272.242 72.86C272.735 73.34 273.309 73.7133 273.962 73.98C274.629 74.2467 275.355 74.38 276.142 74.38ZM286.795 76V62H292.815C294.335 62 295.529 62.3067 296.395 62.92C297.262 63.5333 297.695 64.4267 297.695 65.6C297.695 66.7467 297.282 67.6267 296.455 68.24C295.629 68.84 294.542 69.14 293.195 69.14L293.555 68.54C295.115 68.54 296.309 68.8533 297.135 69.48C297.975 70.0933 298.395 70.9933 298.395 72.18C298.395 73.38 297.955 74.32 297.075 75C296.209 75.6667 294.915 76 293.195 76H286.795ZM288.775 74.42H293.155C294.222 74.42 295.022 74.2267 295.555 73.84C296.102 73.44 296.375 72.8333 296.375 72.02C296.375 71.2067 296.102 70.6133 295.555 70.24C295.022 69.8667 294.222 69.68 293.155 69.68H288.775V74.42ZM288.775 68.16H292.675C293.649 68.16 294.389 67.9667 294.895 67.58C295.415 67.1933 295.675 66.6267 295.675 65.88C295.675 65.12 295.415 64.5467 294.895 64.16C294.389 63.7733 293.649 63.58 292.675 63.58H288.775V68.16ZM299.797 76L306.137 62H308.117L314.477 76H312.377L306.717 63.12H307.517L301.857 76H299.797ZM302.497 72.5L303.037 70.9H310.917L311.497 72.5H302.497ZM319.05 76V63.22L319.55 63.74H314.27V62H325.81V63.74H320.53L321.01 63.22V76H319.05ZM334.381 66.88C336.034 66.88 337.307 67.2533 338.201 68C339.094 68.7333 339.541 69.8333 339.541 71.3C339.541 72.8467 339.054 74.02 338.081 74.82C337.121 75.6067 335.767 76 334.021 76H328.241V62H330.221V66.88H334.381ZM333.941 74.42C335.101 74.42 335.987 74.16 336.601 73.64C337.227 73.12 337.541 72.3533 337.541 71.34C337.541 70.3533 337.234 69.6267 336.621 69.16C336.007 68.6933 335.114 68.46 333.941 68.46H330.221V74.42H333.941ZM348.758 76.16C347.692 76.16 346.705 75.9867 345.798 75.64C344.905 75.28 344.125 74.78 343.458 74.14C342.805 73.4867 342.292 72.7267 341.918 71.86C341.545 70.9933 341.358 70.04 341.358 69C341.358 67.96 341.545 67.0067 341.918 66.14C342.292 65.2733 342.812 64.52 343.478 63.88C344.145 63.2267 344.925 62.7267 345.818 62.38C346.725 62.02 347.712 61.84 348.778 61.84C349.858 61.84 350.852 62.0267 351.758 62.4C352.678 62.76 353.458 63.3 354.098 64.02L352.798 65.28C352.265 64.72 351.665 64.3067 350.998 64.04C350.332 63.76 349.618 63.62 348.858 63.62C348.072 63.62 347.338 63.7533 346.658 64.02C345.992 64.2867 345.412 64.66 344.918 65.14C344.425 65.62 344.038 66.1933 343.758 66.86C343.492 67.5133 343.358 68.2267 343.358 69C343.358 69.7733 343.492 70.4933 343.758 71.16C344.038 71.8133 344.425 72.38 344.918 72.86C345.412 73.34 345.992 73.7133 346.658 73.98C347.338 74.2467 348.072 74.38 348.858 74.38C349.618 74.38 350.332 74.2467 350.998 73.98C351.665 73.7 352.265 73.2733 352.798 72.7L354.098 73.96C353.458 74.68 352.678 75.2267 351.758 75.6C350.852 75.9733 349.852 76.16 348.758 76.16ZM364.822 76V71.44L365.342 71.92H360.962C359.828 71.92 358.848 71.7267 358.022 71.34C357.208 70.9533 356.582 70.4 356.142 69.68C355.715 68.9467 355.502 68.0667 355.502 67.04C355.502 65.9733 355.735 65.0667 356.202 64.32C356.668 63.56 357.328 62.9867 358.182 62.6C359.035 62.2 360.028 62 361.162 62H366.782V76H364.822ZM355.502 76L358.962 71.04H361.002L357.622 76H355.502ZM364.822 70.8V63.16L365.342 63.74H361.242C360.042 63.74 359.122 64.02 358.482 64.58C357.842 65.1267 357.522 65.94 357.522 67.02C357.522 68.0467 357.822 68.84 358.422 69.4C359.035 69.96 359.935 70.24 361.122 70.24H365.342L364.822 70.8Z" fill="white"/>
<defs>
<filter id="filter0_d_288_197" x="0" y="0" width="443" height="146" filterUnits="userSpaceOnUse" color-interpolation-filters="sRGB">
<feFlood flood-opacity="0" result="BackgroundImageFix"/>
<feColorMatrix in="SourceAlpha" type="matrix" values="0 0 0 0 0 0 0 0 0 0 0 0 0 0 0 0 0 0 127 0" result="hardAlpha"/>
<feOffset dy="4"/>
<feGaussianBlur stdDeviation="20"/>
<feComposite in2="hardAlpha" operator="out"/>
<feColorMatrix type="matrix" values="0 0 0 0 1 0 0 0 0 1 0 0 0 0 1 0 0 0 0.7 0"/>
<feBlend mode="normal" in2="BackgroundImageFix" result="effect1_dropShadow_288_197"/>
<feBlend mode="normal" in="SourceGraphic" in2="effect1_dropShadow_288_197" result="shape"/>
</filter>
</defs>
</svg>
