<svg width="160" height="160" viewBox="0 0 160 160" fill="none" xmlns="http://www.w3.org/2000/svg">
<path fill-rule="evenodd" clip-rule="evenodd" d="M160 129.231V41.5138L84.2029 65.4414C83.4334 66 82.5563 66.2946 81.6629 66.2946C80.7695 66.2946 79.8925 66 79.1229 65.4414L0 41.5138V129.231C0 137.391 2.63392 145.218 7.32233 150.988C12.0107 156.758 18.3696 160 25 160H135C141.63 160 147.989 156.758 152.678 150.988C157.366 145.218 160 137.391 160 129.231ZM151.672 7.8368C147.087 2.78901 141.151 -0.00118959 135 3.80469e-07H25C18.8485 -0.00118959 12.9127 2.78901 8.32795 7.8368C3.74324 12.8846 0.831583 19.8356 0.150001 27.36L81.6629 52.9984L159.85 27.36C159.168 19.8356 156.257 12.8846 151.672 7.8368ZM68.56 138.08C72 139.44 75.8 140.12 79.96 140.12C82.08 140.12 84.3 139.88 86.62 139.4C88.94 138.92 91.02 138.22 92.86 137.3L91.54 133.46C89.74 134.38 87.82 135.04 85.78 135.44C83.74 135.88 81.8 136.1 79.96 136.1C76.4 136.1 73.16 135.52 70.24 134.36C67.36 133.24 64.86 131.64 62.74 129.56C60.66 127.52 59.06 125.08 57.94 122.24C56.82 119.36 56.26 116.2 56.26 112.76C56.26 109.36 56.82 106.24 57.94 103.4C59.1 100.56 60.74 98.12 62.86 96.08C64.98 94 67.5 92.4 70.42 91.28C73.38 90.12 76.64 89.54 80.2 89.54C83.76 89.54 86.98 90.08 89.86 91.16C92.78 92.2 95.3 93.72 97.42 95.72C99.58 97.72 101.22 100.1 102.34 102.86C103.5 105.58 104.08 108.62 104.08 111.98C104.08 114.46 103.86 116.6 103.42 118.4C103.02 120.16 102.38 121.5 101.5 122.42C100.66 123.34 99.66 123.8 98.5 123.8C97.54 123.8 96.72 123.48 96.04 122.84C95.4 122.2 95.08 121.08 95.08 119.48V97.88H89.86V102.738C88.8496 101.359 87.6096 100.26 86.14 99.44C84.06 98.24 81.64 97.64 78.88 97.64C76.04 97.64 73.52 98.3 71.32 99.62C69.12 100.9 67.38 102.7 66.1 105.02C64.82 107.3 64.18 109.94 64.18 112.94C64.18 115.9 64.82 118.54 66.1 120.86C67.38 123.18 69.12 125.02 71.32 126.38C73.52 127.7 76.04 128.36 78.88 128.36C81.68 128.36 84.12 127.76 86.2 126.56C87.8498 125.576 89.2102 124.266 90.2812 122.628C90.5598 124.141 91.1594 125.371 92.08 126.32C93.44 127.68 95.24 128.36 97.48 128.36C99.76 128.36 101.68 127.7 103.24 126.38C104.84 125.02 106.06 123.12 106.9 120.68C107.74 118.24 108.16 115.32 108.16 111.92C108.16 108.04 107.48 104.5 106.12 101.3C104.76 98.06 102.82 95.28 100.3 92.96C97.82 90.6 94.88 88.78 91.48 87.5C88.08 86.22 84.32 85.58 80.2 85.58C76 85.58 72.16 86.24 68.68 87.56C65.2 88.88 62.2 90.76 59.68 93.2C57.2 95.64 55.28 98.52 53.92 101.84C52.56 105.16 51.88 108.8 51.88 112.76C51.88 116.72 52.56 120.38 53.92 123.74C55.28 127.06 57.2 129.94 59.68 132.38C62.16 134.82 65.12 136.72 68.56 138.08ZM84.94 122.42C83.42 123.26 81.68 123.68 79.72 123.68C77.72 123.68 75.94 123.24 74.38 122.36C72.86 121.44 71.66 120.18 70.78 118.58C69.94 116.98 69.52 115.1 69.52 112.94C69.52 110.74 69.94 108.84 70.78 107.24C71.66 105.64 72.86 104.42 74.38 103.58C75.94 102.7 77.72 102.26 79.72 102.26C81.68 102.26 83.42 102.68 84.94 103.52C86.5 104.36 87.72 105.58 88.6 107.18C89.52 108.78 89.98 110.7 89.98 112.94C89.98 115.14 89.52 117.06 88.6 118.7C87.72 120.3 86.5 121.54 84.94 122.42Z" fill="white"/>
</svg>
