<svg width="160" height="160" viewBox="0 0 160 160" fill="none" xmlns="http://www.w3.org/2000/svg">
<path d="M120 76.3077C121.231 78.1538 122.462 80 123.077 83.0769H103.385C103.385 82.4615 103.385 81.2308 104 80C104.615 78.7692 104.615 78.1538 105.846 76.9231C106.462 75.6923 107.692 75.0769 108.923 74.4615C110.154 73.8462 112 73.2308 113.846 73.2308C116.308 73.8462 118.769 74.4615 120 76.3077ZM63.3846 72C64.6154 70.7692 65.8462 68.9231 65.8462 66.4615C65.8462 65.2308 65.8462 64 65.2308 62.7692C64.6154 62.1538 64 60.9231 63.3846 60.9231C62.7692 60.3077 61.5385 60.3077 60.3077 59.6923H44.3077V73.8462H57.8462C59.6923 73.8462 61.5385 73.2308 63.3846 72ZM58.4615 82.4615H44.3077V99.0769H58.4615C59.6923 99.0769 60.9231 99.0769 62.1539 98.4615C63.3846 98.4615 64.6154 97.8462 65.2308 97.2308C65.8462 96.6154 67.0769 96 67.6923 94.7692C68.3077 93.5385 68.3077 92.3077 68.3077 91.0769C68.3077 88 67.6923 85.5385 65.8462 84.3077C64 83.0769 61.5385 82.4615 58.4615 82.4615ZM160 30.1538V129.846C160 146.462 146.462 160 129.846 160H30.1538C13.5385 160 0 146.462 0 129.846V30.1538C0 13.5385 13.5385 0 30.1538 0H129.846C146.462 0 160 13.5385 160 30.1538ZM100.923 59.0769H125.538V52.9231H100.923V59.0769ZM81.2308 92.3077C81.2308 88.6154 80.6154 85.5385 78.7692 82.4615C76.9231 80 74.4615 78.1538 70.7692 76.9231C73.2308 75.6923 75.6923 73.8462 76.9231 72C78.1538 70.1538 78.7692 67.6923 78.7692 64.6154C78.7692 61.5385 78.1538 59.6923 77.5385 57.2308C76.3077 55.3846 75.0769 53.5385 73.8462 52.9231C72 51.6923 70.1538 51.0769 67.6923 50.4615C64.6154 49.2308 62.1539 49.2308 59.0769 49.2308H30.7692V109.538H60.3077C62.7692 109.538 65.8462 108.923 68.3077 108.308C70.7692 107.692 73.2308 106.462 75.0769 105.231C76.9231 104 78.7692 102.154 80 99.6923C80.6154 97.8462 81.2308 95.3846 81.2308 92.3077ZM103.385 90.4615H134.769C134.769 86.7692 134.769 83.6923 134.154 80.6154C133.538 77.5385 132.308 74.4615 130.462 72.6154C128.615 70.1538 126.154 68.3077 123.692 67.0769C120.615 65.8462 117.538 64.6154 113.846 64.6154C110.769 64.6154 107.692 65.2308 104.615 66.4615C102.154 67.6923 99.6923 69.5385 97.2308 71.3846C95.3846 73.2308 93.5385 75.6923 92.9231 78.7692C91.6923 81.8462 91.0769 84.9231 91.0769 88C91.0769 91.0769 91.6923 94.7692 92.9231 97.2308C94.1538 100.308 95.3846 102.769 97.2308 104.615C99.0769 106.462 101.538 108.308 104 109.538C107.077 110.769 110.154 111.385 113.231 111.385C118.154 111.385 122.462 110.154 126.154 107.692C129.846 105.231 132.308 101.538 134.154 96.6154H123.692C123.077 97.8462 122.462 99.0769 120.615 100.308C118.769 101.538 116.923 102.154 114.462 102.154C111.385 102.154 108.308 101.538 106.462 99.6923C104.615 97.2308 103.385 94.1538 103.385 90.4615Z" fill="white"/>
</svg>
