<svg width="1600" height="198" viewBox="0 0 1600 198" fill="none" xmlns="http://www.w3.org/2000/svg">
<path fill-rule="evenodd" clip-rule="evenodd" d="M533 104C429.4 104 371.119 66.9167 237.502 67C104.252 67 96.2748 122.333 0.00164795 122.333L0 197.503H533C533 197.503 533 113.667 533 104Z" fill="#004B90"/>
<path fill-rule="evenodd" clip-rule="evenodd" d="M1067 104.5C963.204 104.5 861.368 66.4167 727.5 66.5C594 66.5 629.454 104 533 104L532.996 197.501H1067C1067 197.501 1067 114.167 1067 104.5Z" fill="#004B90"/>
<path fill-rule="evenodd" clip-rule="evenodd" d="M1600 122.334C1496.4 122.334 1435.12 68.4167 1301.5 68.5C1168.25 68.5 1163.27 104.5 1067 104.5L1067 197.5H1600C1600 197.5 1600 132 1600 122.334Z" fill="#004B90"/>
</svg>
