<svg width="162" height="160" viewBox="0 0 162 160" fill="none" xmlns="http://www.w3.org/2000/svg">
<path fill-rule="evenodd" clip-rule="evenodd" d="M45 0C20.1472 0 0 20.1472 0 45V115C0 139.853 20.1472 160 45 160H117C141.853 160 162 139.853 162 115V45C162 20.1472 141.853 0 117 0H45ZM37.7607 73.7747L112.181 44.807C117.742 42.5531 119.924 45.145 118.645 51.0275L106.323 109.921C105.384 114.7 103.01 116.383 98.6468 113.776L79.8608 99.5762L68.8919 110.053C67.5446 111.229 65.4325 111.218 64.279 108.851L65.5244 93.5162L105.171 57.2815C107.392 55.2928 104.811 54.8107 102.291 56.6185L56.1288 85.4156L37.0369 79.2912C33.753 77.8251 34.7659 75.1236 37.7607 73.7747Z" fill="white"/>
</svg>
